<svg width="84" height="47" viewBox="0 0 84 47" fill="none" xmlns="http://www.w3.org/2000/svg">
<mask id="path-1-inside-1_2602_1021" fill="white">
<path d="M77.5775 1.18837C77.5035 1.37999 77.4676 1.58455 77.4718 1.79025C77.476 1.99594 77.5202 2.19872 77.6019 2.38708C77.6836 2.57544 77.8012 2.74563 77.948 2.8879C78.0947 3.03017 78.2678 3.14179 78.4572 3.21624C80.1165 3.87529 80.9389 4.96888 80.8316 6.38836C80.7243 7.80785 79.5729 9.45911 78.3141 9.75604C75.5749 10.3934 73.8799 12.6529 72.9931 14.3259C68.4301 11.9721 62.9803 15.9409 62.2007 16.4985C59.2477 18.3118 56.1718 19.9115 52.9961 21.2857C52.6339 21.4429 52.3451 21.7349 52.1894 22.1015C52.0337 22.4681 52.0229 22.8812 52.1593 23.2556L52.1593 23.3425C52.2388 23.532 52.3545 23.7038 52.4998 23.8479C52.645 23.992 52.8169 24.1057 53.0056 24.1824C53.1943 24.2591 53.3961 24.2973 53.5994 24.2949C53.8028 24.2924 54.0036 24.2493 54.1904 24.1681C57.5219 22.7088 60.7482 21.0148 63.8456 19.0985L63.9887 18.9899C65.2546 17.9977 69.1023 15.7164 71.6342 17.0996C72.0868 17.4048 72.4555 17.8215 72.7057 18.3104C72.9559 18.7994 73.0794 19.3447 73.0646 19.8952C73.0989 20.5135 73.0581 21.1337 72.943 21.7419C72.4478 20.6977 71.6193 19.853 70.5915 19.3444C69.5636 18.8359 68.3965 18.6931 67.2786 18.9392C67.0741 18.9758 66.8789 19.0539 66.7048 19.1687C66.5308 19.2835 66.3814 19.4325 66.2655 19.6071C66.1497 19.7817 66.0697 19.9782 66.0306 20.1848C65.9914 20.3913 65.9939 20.6037 66.0377 20.8093C66.0815 21.015 66.1657 21.2096 66.2854 21.3814C66.4052 21.5533 66.5579 21.6989 66.7345 21.8097C66.9111 21.9204 67.108 21.9939 67.3133 22.0258C67.5186 22.0577 67.7282 22.0474 67.9295 21.9954C68.2934 21.9163 68.6719 21.9414 69.0224 22.0679C69.373 22.1945 69.6818 22.4175 69.9142 22.7119C70.1466 23.0063 70.2933 23.3604 70.338 23.7345C70.3827 24.1087 70.3236 24.4882 70.1672 24.8302C70.0108 25.1722 69.7634 25.4632 69.4527 25.6707C69.142 25.8783 68.7804 25.994 68.4083 26.005C68.0363 26.016 67.6685 25.9218 67.3464 25.7329C67.0244 25.544 66.7607 25.268 66.5849 24.9358C66.3709 24.6165 66.0483 24.3881 65.6788 24.2941C65.3092 24.2 64.9183 24.247 64.5807 24.426C64.2431 24.605 63.9824 24.9035 63.8481 25.2646C63.7139 25.6257 63.7155 26.0243 63.8528 26.3843C64.3516 27.3227 65.1239 28.0828 66.0645 28.5609C67.0051 29.0391 68.0683 29.2122 69.1095 29.0566C67.7801 30.6249 66.3102 32.0651 64.7182 33.3586C64.958 32.6149 65.081 31.8378 65.0829 31.0555C65.0795 29.6437 64.6884 28.2606 63.9533 27.0609C63.2183 25.8613 62.1682 24.8923 60.9205 24.2622C60.5534 24.0779 60.1291 24.0487 59.7408 24.1811C59.3525 24.3135 59.0321 24.5967 58.85 24.9684C58.6679 25.34 58.639 25.7698 58.7698 26.163C58.9006 26.5562 59.1802 26.8806 59.5473 27.065C60.3631 27.4722 61.0339 28.126 61.4671 28.9359C61.9002 29.7457 62.0744 30.6718 61.9654 31.5862C61.8565 32.5006 61.4698 33.3582 60.8588 34.0405C60.2479 34.7228 59.4427 35.1962 58.5547 35.3952C57.6666 35.5942 56.7394 35.5091 55.9011 35.1516C55.0629 34.7941 54.355 34.1819 53.8752 33.3994C53.3953 32.617 53.1673 31.703 53.2225 30.7837C53.2777 29.8643 53.6133 28.9851 54.1833 28.2672C54.4403 27.9436 54.5598 27.5298 54.5155 27.1169C54.4713 26.704 54.2669 26.3258 53.9473 26.0656C53.6277 25.8053 53.219 25.6843 52.8113 25.7291C52.4035 25.7739 52.0301 25.981 51.773 26.3046C50.9555 27.3331 50.4176 28.5601 50.2126 29.864C50.0077 31.1678 50.1429 32.5033 50.6047 33.738C51.0666 34.9727 51.8391 36.0638 52.8457 36.903C53.8522 37.7422 55.0579 38.3004 56.3432 38.5223C52.6941 40.1589 48.8947 41.4275 45.0001 42.31C45.0251 42.1614 45.0251 42.0096 45.0001 41.861C44.9577 41.6597 44.8764 41.4688 44.761 41.2994C44.6456 41.1299 44.4983 40.9853 44.3275 40.8736C44.1568 40.7619 43.9659 40.6854 43.7659 40.6485C43.5659 40.6117 43.3607 40.6152 43.1621 40.6588C42.054 40.8618 40.9113 40.6209 39.9753 39.9868C39.0393 39.3527 38.3832 38.3752 38.1456 37.2605C37.908 36.1458 38.1075 34.9813 38.7019 34.0127C39.2962 33.0441 40.239 32.3474 41.3311 32.0694C41.8881 31.9471 42.4635 31.9371 43.0243 32.0402C43.5851 32.1433 44.1203 32.3574 44.5993 32.6702C45.0783 32.983 45.4916 33.3884 45.8156 33.8632C46.1397 34.338 46.368 34.8728 46.4877 35.4371C46.5692 35.8138 46.7852 36.1467 47.0943 36.372C47.4033 36.5973 47.7837 36.6991 48.1623 36.6578C48.5409 36.6165 48.8911 36.435 49.1457 36.1483C49.4003 35.8615 49.5412 35.4896 49.5416 35.104C49.5519 34.9932 49.5519 34.8816 49.5416 34.7708C49.2728 33.4998 48.6835 32.321 47.831 31.3492C46.9785 30.3774 45.892 29.6459 44.6773 29.2257C43.4625 28.8056 42.161 28.7113 40.8996 28.952C39.6381 29.1926 38.4598 29.7601 37.4793 30.5991C36.4989 31.438 35.7497 32.5198 35.3049 33.7391C34.8601 34.9584 34.7348 36.2736 34.9412 37.5565C35.1476 38.8394 35.6787 40.0463 36.4827 41.0596C37.2866 42.0729 38.3361 42.858 39.5288 43.3385C38.4274 43.4978 37.326 43.6281 36.2317 43.7222C34.4485 43.8767 32.7035 43.9492 30.9965 43.9395C31.7619 43.4228 32.4143 42.7523 32.9132 41.9697C33.6117 40.8786 33.982 39.6053 33.9788 38.305C33.9789 37.8182 33.9286 37.3327 33.8287 36.8566C33.7925 36.6495 33.7155 36.4518 33.6021 36.2756C33.4888 36.0993 33.3415 35.948 33.1691 35.8307C32.9967 35.7134 32.8026 35.6325 32.5986 35.5929C32.3946 35.5532 32.1849 35.5556 31.9818 35.6C31.7788 35.6443 31.5867 35.7296 31.417 35.8509C31.2472 35.9721 31.1033 36.1268 30.994 36.3056C30.8846 36.4845 30.812 36.6839 30.7805 36.8918C30.749 37.0997 30.7592 37.3118 30.8106 37.5156C30.9106 37.985 30.9183 38.4697 30.8333 38.9421C30.7484 39.4145 30.5724 39.8653 30.3154 40.2688C30.0583 40.6723 29.7254 41.0206 29.3355 41.2938C28.9455 41.567 28.5062 41.7597 28.0427 41.861C27.5792 41.9623 27.1006 41.9701 26.6341 41.8841C26.1676 41.798 25.7224 41.6198 25.3239 41.3596C24.9254 41.0993 24.5815 40.7622 24.3117 40.3673C24.0419 39.9724 23.8516 39.5276 23.7515 39.0583C23.5518 38.1105 23.7308 37.1213 24.2495 36.3069C24.7682 35.4926 25.5844 34.9194 26.5194 34.7129C27.0796 34.5896 27.661 34.6044 28.2144 34.7563C28.6108 34.8639 29.0332 34.8076 29.3886 34.5998C29.7441 34.392 30.0034 34.0497 30.1097 33.6483C30.2159 33.2469 30.1603 32.8191 29.9551 32.4591C29.7498 32.0992 29.4118 31.8366 29.0154 31.7291C27.9082 31.4328 26.7447 31.4282 25.6352 31.7156C24.5258 32.0031 23.5073 32.573 22.6767 33.3713C21.8461 34.1696 21.2308 35.1697 20.8894 36.2766C20.548 37.3835 20.4919 38.5605 20.7262 39.6956C21.0108 41.0297 21.6892 42.2446 22.6716 43.1791C20.5053 42.8066 18.372 42.2592 16.2919 41.5423C16.512 41.3988 16.693 41.2016 16.818 40.9687C16.943 40.7358 17.008 40.4748 17.0072 40.2097C17.0173 40.0989 17.0173 39.9874 17.0072 39.8766C16.9648 39.6755 16.8835 39.4848 16.7679 39.3157C16.6524 39.1466 16.505 39.0024 16.3341 38.8913C16.1632 38.7801 15.9723 38.7043 15.7723 38.6684C15.5724 38.6324 15.3674 38.6369 15.1691 38.6816C14.784 38.7659 14.3818 38.7079 14.0351 38.5183C13.6884 38.3286 13.4201 38.0198 13.2785 37.6475C13.137 37.2751 13.1315 36.8637 13.2631 36.4877C13.3947 36.1116 13.6547 35.7955 13.9962 35.5964C14.3509 35.388 14.6093 35.0455 14.7146 34.6441C14.8199 34.2428 14.7634 33.8155 14.5576 33.4564C14.3518 33.0972 14.0135 32.8355 13.6172 32.7289C13.2209 32.6222 12.7989 32.6794 12.4442 32.8878C11.5745 33.3952 10.8873 34.1702 10.4822 35.1C10.077 36.0299 9.97511 37.0663 10.1913 38.0588C10.2476 38.3347 10.3316 38.604 10.4417 38.8627C8.83131 37.9379 7.31066 36.8613 5.90007 35.6472C5.85076 35.6022 5.79818 35.561 5.74275 35.524C4.99496 34.9819 4.37055 34.2838 3.91162 33.4768C3.45268 32.6698 3.16989 31.7726 3.08222 30.8455L8.1816 31.2293C20.5573 32.3126 33.0239 31.0378 44.9358 27.4706C45.1307 27.4126 45.3124 27.3159 45.4703 27.1863C45.6282 27.0567 45.7592 26.8967 45.8556 26.7155C45.952 26.5344 46.012 26.3357 46.0321 26.1309C46.0523 25.9261 46.0321 25.7192 45.9728 25.5224L45.9728 25.4427C45.8393 25.0679 45.5696 24.7588 45.2187 24.5785C44.8678 24.3981 44.4622 24.3601 44.0846 24.4723C32.5563 27.8667 20.5114 29.094 8.54636 28.0934C8.54636 28.0934 8.49632 28.0934 8.47486 28.0934L1.77344 27.5937C1.38787 27.563 1.00494 27.6799 0.700373 27.9213C0.395803 28.1627 0.191711 28.511 0.12844 28.8973C-0.765561 34.4304 3.27533 37.5881 3.98338 38.0661C11.8506 44.8303 23.4011 47.93 36.5393 46.7568C47.1887 45.837 58.3672 42.0421 65.0114 37.0956C72.1634 31.8015 76.283 25.5587 76.283 20.2501C76.283 20.0183 76.283 19.7866 76.283 19.5259C76.2179 18.4375 75.9177 17.3768 75.4033 16.4189C75.8324 15.4339 77.0411 13.0874 79.0937 12.6095C81.6756 12.0011 83.7854 9.34316 84 6.42452L84 5.96101C84 3.36103 82.398 1.19562 79.6445 0.10928C79.4396 0.0273784 79.2198 -0.00918544 78.9999 0.00195349C78.7799 0.0130962 78.5648 0.0717129 78.3691 0.173905C78.1734 0.276097 78.0015 0.419484 77.8649 0.594456C77.7284 0.769429 77.6304 0.971901 77.5775 1.18837Z"/>
</mask>
<path d="M77.5775 1.18837C77.5035 1.37999 77.4676 1.58455 77.4718 1.79025C77.476 1.99594 77.5202 2.19872 77.6019 2.38708C77.6836 2.57544 77.8012 2.74563 77.948 2.8879C78.0947 3.03017 78.2678 3.14179 78.4572 3.21624C80.1165 3.87529 80.9389 4.96888 80.8316 6.38836C80.7243 7.80785 79.5729 9.45911 78.3141 9.75604C75.5749 10.3934 73.8799 12.6529 72.9931 14.3259C68.4301 11.9721 62.9803 15.9409 62.2007 16.4985C59.2477 18.3118 56.1718 19.9115 52.9961 21.2857C52.6339 21.4429 52.3451 21.7349 52.1894 22.1015C52.0337 22.4681 52.0229 22.8812 52.1593 23.2556L52.1593 23.3425C52.2388 23.532 52.3545 23.7038 52.4998 23.8479C52.645 23.992 52.8169 24.1057 53.0056 24.1824C53.1943 24.2591 53.3961 24.2973 53.5994 24.2949C53.8028 24.2924 54.0036 24.2493 54.1904 24.1681C57.5219 22.7088 60.7482 21.0148 63.8456 19.0985L63.9887 18.9899C65.2546 17.9977 69.1023 15.7164 71.6342 17.0996C72.0868 17.4048 72.4555 17.8215 72.7057 18.3104C72.9559 18.7994 73.0794 19.3447 73.0646 19.8952C73.0989 20.5135 73.0581 21.1337 72.943 21.7419C72.4478 20.6977 71.6193 19.853 70.5915 19.3444C69.5636 18.8359 68.3965 18.6931 67.2786 18.9392C67.0741 18.9758 66.8789 19.0539 66.7048 19.1687C66.5308 19.2835 66.3814 19.4325 66.2655 19.6071C66.1497 19.7817 66.0697 19.9782 66.0306 20.1848C65.9914 20.3913 65.9939 20.6037 66.0377 20.8093C66.0815 21.015 66.1657 21.2096 66.2854 21.3814C66.4052 21.5533 66.5579 21.6989 66.7345 21.8097C66.9111 21.9204 67.108 21.9939 67.3133 22.0258C67.5186 22.0577 67.7282 22.0474 67.9295 21.9954C68.2934 21.9163 68.6719 21.9414 69.0224 22.0679C69.373 22.1945 69.6818 22.4175 69.9142 22.7119C70.1466 23.0063 70.2933 23.3604 70.338 23.7345C70.3827 24.1087 70.3236 24.4882 70.1672 24.8302C70.0108 25.1722 69.7634 25.4632 69.4527 25.6707C69.142 25.8783 68.7804 25.994 68.4083 26.005C68.0363 26.016 67.6685 25.9218 67.3464 25.7329C67.0244 25.544 66.7607 25.268 66.5849 24.9358C66.3709 24.6165 66.0483 24.3881 65.6788 24.2941C65.3092 24.2 64.9183 24.247 64.5807 24.426C64.2431 24.605 63.9824 24.9035 63.8481 25.2646C63.7139 25.6257 63.7155 26.0243 63.8528 26.3843C64.3516 27.3227 65.1239 28.0828 66.0645 28.5609C67.0051 29.0391 68.0683 29.2122 69.1095 29.0566C67.7801 30.6249 66.3102 32.0651 64.7182 33.3586C64.958 32.6149 65.081 31.8378 65.0829 31.0555C65.0795 29.6437 64.6884 28.2606 63.9533 27.0609C63.2183 25.8613 62.1682 24.8923 60.9205 24.2622C60.5534 24.0779 60.1291 24.0487 59.7408 24.1811C59.3525 24.3135 59.0321 24.5967 58.85 24.9684C58.6679 25.34 58.639 25.7698 58.7698 26.163C58.9006 26.5562 59.1802 26.8806 59.5473 27.065C60.3631 27.4722 61.0339 28.126 61.4671 28.9359C61.9002 29.7457 62.0744 30.6718 61.9654 31.5862C61.8565 32.5006 61.4698 33.3582 60.8588 34.0405C60.2479 34.7228 59.4427 35.1962 58.5547 35.3952C57.6666 35.5942 56.7394 35.5091 55.9011 35.1516C55.0629 34.7941 54.355 34.1819 53.8752 33.3994C53.3953 32.617 53.1673 31.703 53.2225 30.7837C53.2777 29.8643 53.6133 28.9851 54.1833 28.2672C54.4403 27.9436 54.5598 27.5298 54.5155 27.1169C54.4713 26.704 54.2669 26.3258 53.9473 26.0656C53.6277 25.8053 53.219 25.6843 52.8113 25.7291C52.4035 25.7739 52.0301 25.981 51.773 26.3046C50.9555 27.3331 50.4176 28.5601 50.2126 29.864C50.0077 31.1678 50.1429 32.5033 50.6047 33.738C51.0666 34.9727 51.8391 36.0638 52.8457 36.903C53.8522 37.7422 55.0579 38.3004 56.3432 38.5223C52.6941 40.1589 48.8947 41.4275 45.0001 42.31C45.0251 42.1614 45.0251 42.0096 45.0001 41.861C44.9577 41.6597 44.8764 41.4688 44.761 41.2994C44.6456 41.1299 44.4983 40.9853 44.3275 40.8736C44.1568 40.7619 43.9659 40.6854 43.7659 40.6485C43.5659 40.6117 43.3607 40.6152 43.1621 40.6588C42.054 40.8618 40.9113 40.6209 39.9753 39.9868C39.0393 39.3527 38.3832 38.3752 38.1456 37.2605C37.908 36.1458 38.1075 34.9813 38.7019 34.0127C39.2962 33.0441 40.239 32.3474 41.3311 32.0694C41.8881 31.9471 42.4635 31.9371 43.0243 32.0402C43.5851 32.1433 44.1203 32.3574 44.5993 32.6702C45.0783 32.983 45.4916 33.3884 45.8156 33.8632C46.1397 34.338 46.368 34.8728 46.4877 35.4371C46.5692 35.8138 46.7852 36.1467 47.0943 36.372C47.4033 36.5973 47.7837 36.6991 48.1623 36.6578C48.5409 36.6165 48.8911 36.435 49.1457 36.1483C49.4003 35.8615 49.5412 35.4896 49.5416 35.104C49.5519 34.9932 49.5519 34.8816 49.5416 34.7708C49.2728 33.4998 48.6835 32.321 47.831 31.3492C46.9785 30.3774 45.892 29.6459 44.6773 29.2257C43.4625 28.8056 42.161 28.7113 40.8996 28.952C39.6381 29.1926 38.4598 29.7601 37.4793 30.5991C36.4989 31.438 35.7497 32.5198 35.3049 33.7391C34.8601 34.9584 34.7348 36.2736 34.9412 37.5565C35.1476 38.8394 35.6787 40.0463 36.4827 41.0596C37.2866 42.0729 38.3361 42.858 39.5288 43.3385C38.4274 43.4978 37.326 43.6281 36.2317 43.7222C34.4485 43.8767 32.7035 43.9492 30.9965 43.9395C31.7619 43.4228 32.4143 42.7523 32.9132 41.9697C33.6117 40.8786 33.982 39.6053 33.9788 38.305C33.9789 37.8182 33.9286 37.3327 33.8287 36.8566C33.7925 36.6495 33.7155 36.4518 33.6021 36.2756C33.4888 36.0993 33.3415 35.948 33.1691 35.8307C32.9967 35.7134 32.8026 35.6325 32.5986 35.5929C32.3946 35.5532 32.1849 35.5556 31.9818 35.6C31.7788 35.6443 31.5867 35.7296 31.417 35.8509C31.2472 35.9721 31.1033 36.1268 30.994 36.3056C30.8846 36.4845 30.812 36.6839 30.7805 36.8918C30.749 37.0997 30.7592 37.3118 30.8106 37.5156C30.9106 37.985 30.9183 38.4697 30.8333 38.9421C30.7484 39.4145 30.5724 39.8653 30.3154 40.2688C30.0583 40.6723 29.7254 41.0206 29.3355 41.2938C28.9455 41.567 28.5062 41.7597 28.0427 41.861C27.5792 41.9623 27.1006 41.9701 26.6341 41.8841C26.1676 41.798 25.7224 41.6198 25.3239 41.3596C24.9254 41.0993 24.5815 40.7622 24.3117 40.3673C24.0419 39.9724 23.8516 39.5276 23.7515 39.0583C23.5518 38.1105 23.7308 37.1213 24.2495 36.3069C24.7682 35.4926 25.5844 34.9194 26.5194 34.7129C27.0796 34.5896 27.661 34.6044 28.2144 34.7563C28.6108 34.8639 29.0332 34.8076 29.3886 34.5998C29.7441 34.392 30.0034 34.0497 30.1097 33.6483C30.2159 33.2469 30.1603 32.8191 29.9551 32.4591C29.7498 32.0992 29.4118 31.8366 29.0154 31.7291C27.9082 31.4328 26.7447 31.4282 25.6352 31.7156C24.5258 32.0031 23.5073 32.573 22.6767 33.3713C21.8461 34.1696 21.2308 35.1697 20.8894 36.2766C20.548 37.3835 20.4919 38.5605 20.7262 39.6956C21.0108 41.0297 21.6892 42.2446 22.6716 43.1791C20.5053 42.8066 18.372 42.2592 16.2919 41.5423C16.512 41.3988 16.693 41.2016 16.818 40.9687C16.943 40.7358 17.008 40.4748 17.0072 40.2097C17.0173 40.0989 17.0173 39.9874 17.0072 39.8766C16.9648 39.6755 16.8835 39.4848 16.7679 39.3157C16.6524 39.1466 16.505 39.0024 16.3341 38.8913C16.1632 38.7801 15.9723 38.7043 15.7723 38.6684C15.5724 38.6324 15.3674 38.6369 15.1691 38.6816C14.784 38.7659 14.3818 38.7079 14.0351 38.5183C13.6884 38.3286 13.4201 38.0198 13.2785 37.6475C13.137 37.2751 13.1315 36.8637 13.2631 36.4877C13.3947 36.1116 13.6547 35.7955 13.9962 35.5964C14.3509 35.388 14.6093 35.0455 14.7146 34.6441C14.8199 34.2428 14.7634 33.8155 14.5576 33.4564C14.3518 33.0972 14.0135 32.8355 13.6172 32.7289C13.2209 32.6222 12.7989 32.6794 12.4442 32.8878C11.5745 33.3952 10.8873 34.1702 10.4822 35.1C10.077 36.0299 9.97511 37.0663 10.1913 38.0588C10.2476 38.3347 10.3316 38.604 10.4417 38.8627C8.83131 37.9379 7.31066 36.8613 5.90007 35.6472C5.85076 35.6022 5.79818 35.561 5.74275 35.524C4.99496 34.9819 4.37055 34.2838 3.91162 33.4768C3.45268 32.6698 3.16989 31.7726 3.08222 30.8455L8.1816 31.2293C20.5573 32.3126 33.0239 31.0378 44.9358 27.4706C45.1307 27.4126 45.3124 27.3159 45.4703 27.1863C45.6282 27.0567 45.7592 26.8967 45.8556 26.7155C45.952 26.5344 46.012 26.3357 46.0321 26.1309C46.0523 25.9261 46.0321 25.7192 45.9728 25.5224L45.9728 25.4427C45.8393 25.0679 45.5696 24.7588 45.2187 24.5785C44.8678 24.3981 44.4622 24.3601 44.0846 24.4723C32.5563 27.8667 20.5114 29.094 8.54636 28.0934C8.54636 28.0934 8.49632 28.0934 8.47486 28.0934L1.77344 27.5937C1.38787 27.563 1.00494 27.6799 0.700373 27.9213C0.395803 28.1627 0.191711 28.511 0.12844 28.8973C-0.765561 34.4304 3.27533 37.5881 3.98338 38.0661C11.8506 44.8303 23.4011 47.93 36.5393 46.7568C47.1887 45.837 58.3672 42.0421 65.0114 37.0956C72.1634 31.8015 76.283 25.5587 76.283 20.2501C76.283 20.0183 76.283 19.7866 76.283 19.5259C76.2179 18.4375 75.9177 17.3768 75.4033 16.4189C75.8324 15.4339 77.0411 13.0874 79.0937 12.6095C81.6756 12.0011 83.7854 9.34316 84 6.42452L84 5.96101C84 3.36103 82.398 1.19562 79.6445 0.10928C79.4396 0.0273784 79.2198 -0.00918544 78.9999 0.00195349C78.7799 0.0130962 78.5648 0.0717129 78.3691 0.173905C78.1734 0.276097 78.0015 0.419484 77.8649 0.594456C77.7284 0.769429 77.6304 0.971901 77.5775 1.18837Z" fill="#333333" stroke="#FFF9EF" stroke-width="1.2" mask="url(#path-1-inside-1_2602_1021)"/>
</svg>
